<!-- Generated by IcoMoon.io -->
<svg version="1.1" xmlns="http://www.w3.org/2000/svg" width="100%" height="100%" viewBox="0 0 27 32">
<title>linkedin-squared</title>
<path fill="white" d="M4.224 25.248h4.128v-12.384h-4.128v12.384zM8.64 9.024q-0.032-0.928-0.672-1.536t-1.632-0.608-1.696 0.608-0.672 1.536q0 0.928 0.64 1.536t1.664 0.608v0q1.056 0 1.696-0.608t0.672-1.536zM19.072 25.248h4.128v-7.104q0-2.752-1.312-4.16t-3.424-1.408q-2.432 0-3.744 2.080h0.032v-1.792h-4.128q0.064 1.184 0 12.384h4.128v-6.944q0-0.672 0.128-0.992 0.256-0.608 0.8-1.056t1.312-0.448q2.080 0 2.080 2.816v6.624zM27.424 7.424v17.152q0 2.112-1.504 3.616t-3.648 1.536h-17.12q-2.144 0-3.648-1.536t-1.504-3.616v-17.152q0-2.112 1.504-3.616t3.648-1.536h17.12q2.144 0 3.648 1.536t1.504 3.616z"></path>
</svg>
